%TF.GenerationSoftware,KiCad,Pcbnew,9.0.4*%
%TF.CreationDate,2025-10-18T23:37:39+08:00*%
%TF.ProjectId,schematics,73636865-6d61-4746-9963-732e6b696361,pre-release*%
%TF.SameCoordinates,Original*%
%TF.FileFunction,Legend,Top*%
%TF.FilePolarity,Positive*%
%FSLAX46Y46*%
G04 Gerber Fmt 4.6, Leading zero omitted, Abs format (unit mm)*
G04 Created by KiCad (PCBNEW 9.0.4) date 2025-10-18 23:37:39*
%MOMM*%
%LPD*%
G01*
G04 APERTURE LIST*
G04 Aperture macros list*
%AMRoundRect*
0 Rectangle with rounded corners*
0 $1 Rounding radius*
0 $2 $3 $4 $5 $6 $7 $8 $9 X,Y pos of 4 corners*
0 Add a 4 corners polygon primitive as box body*
4,1,4,$2,$3,$4,$5,$6,$7,$8,$9,$2,$3,0*
0 Add four circle primitives for the rounded corners*
1,1,$1+$1,$2,$3*
1,1,$1+$1,$4,$5*
1,1,$1+$1,$6,$7*
1,1,$1+$1,$8,$9*
0 Add four rect primitives between the rounded corners*
20,1,$1+$1,$2,$3,$4,$5,0*
20,1,$1+$1,$4,$5,$6,$7,0*
20,1,$1+$1,$6,$7,$8,$9,0*
20,1,$1+$1,$8,$9,$2,$3,0*%
G04 Aperture macros list end*
%ADD10C,0.150000*%
%ADD11C,0.120000*%
%ADD12C,0.100000*%
%TA.AperFunction,ComponentPad*%
%ADD13R,1.500000X1.500000*%
%TD*%
%TA.AperFunction,ComponentPad*%
%ADD14C,1.500000*%
%TD*%
%TA.AperFunction,ComponentPad*%
%ADD15O,1.200000X1.750000*%
%TD*%
%TA.AperFunction,ComponentPad*%
%ADD16RoundRect,0.250000X0.350000X0.625000X-0.350000X0.625000X-0.350000X-0.625000X0.350000X-0.625000X0*%
%TD*%
%TA.AperFunction,HeatsinkPad*%
%ADD17C,0.600000*%
%TD*%
%TA.AperFunction,ComponentPad*%
%ADD18C,2.400000*%
%TD*%
%TA.AperFunction,ComponentPad*%
%ADD19R,2.000000X2.000000*%
%TD*%
%TA.AperFunction,ComponentPad*%
%ADD20C,2.000000*%
%TD*%
%TA.AperFunction,ComponentPad*%
%ADD21RoundRect,0.249999X-1.250001X-1.250001X1.250001X-1.250001X1.250001X1.250001X-1.250001X1.250001X0*%
%TD*%
%TA.AperFunction,ComponentPad*%
%ADD22C,3.000000*%
%TD*%
G04 APERTURE END LIST*
D10*
X146404819Y-78988333D02*
X145928628Y-79321666D01*
X146404819Y-79559761D02*
X145404819Y-79559761D01*
X145404819Y-79559761D02*
X145404819Y-79178809D01*
X145404819Y-79178809D02*
X145452438Y-79083571D01*
X145452438Y-79083571D02*
X145500057Y-79035952D01*
X145500057Y-79035952D02*
X145595295Y-78988333D01*
X145595295Y-78988333D02*
X145738152Y-78988333D01*
X145738152Y-78988333D02*
X145833390Y-79035952D01*
X145833390Y-79035952D02*
X145881009Y-79083571D01*
X145881009Y-79083571D02*
X145928628Y-79178809D01*
X145928628Y-79178809D02*
X145928628Y-79559761D01*
X145881009Y-78559761D02*
X145881009Y-78226428D01*
X146404819Y-78083571D02*
X146404819Y-78559761D01*
X146404819Y-78559761D02*
X145404819Y-78559761D01*
X145404819Y-78559761D02*
X145404819Y-78083571D01*
X145881009Y-77321666D02*
X145881009Y-77654999D01*
X146404819Y-77654999D02*
X145404819Y-77654999D01*
X145404819Y-77654999D02*
X145404819Y-77178809D01*
X145404819Y-76654999D02*
X145642914Y-76654999D01*
X145547676Y-76893094D02*
X145642914Y-76654999D01*
X145642914Y-76654999D02*
X145547676Y-76416904D01*
X145833390Y-76797856D02*
X145642914Y-76654999D01*
X145642914Y-76654999D02*
X145833390Y-76512142D01*
X145404819Y-75893094D02*
X145642914Y-75893094D01*
X145547676Y-76131189D02*
X145642914Y-75893094D01*
X145642914Y-75893094D02*
X145547676Y-75654999D01*
X145833390Y-76035951D02*
X145642914Y-75893094D01*
X145642914Y-75893094D02*
X145833390Y-75750237D01*
X152834819Y-77333333D02*
X152358628Y-77666666D01*
X152834819Y-77904761D02*
X151834819Y-77904761D01*
X151834819Y-77904761D02*
X151834819Y-77523809D01*
X151834819Y-77523809D02*
X151882438Y-77428571D01*
X151882438Y-77428571D02*
X151930057Y-77380952D01*
X151930057Y-77380952D02*
X152025295Y-77333333D01*
X152025295Y-77333333D02*
X152168152Y-77333333D01*
X152168152Y-77333333D02*
X152263390Y-77380952D01*
X152263390Y-77380952D02*
X152311009Y-77428571D01*
X152311009Y-77428571D02*
X152358628Y-77523809D01*
X152358628Y-77523809D02*
X152358628Y-77904761D01*
X152311009Y-76904761D02*
X152311009Y-76571428D01*
X152834819Y-76428571D02*
X152834819Y-76904761D01*
X152834819Y-76904761D02*
X151834819Y-76904761D01*
X151834819Y-76904761D02*
X151834819Y-76428571D01*
X152311009Y-75666666D02*
X152311009Y-75999999D01*
X152834819Y-75999999D02*
X151834819Y-75999999D01*
X151834819Y-75999999D02*
X151834819Y-75523809D01*
X151834819Y-74999999D02*
X152072914Y-74999999D01*
X151977676Y-75238094D02*
X152072914Y-74999999D01*
X152072914Y-74999999D02*
X151977676Y-74761904D01*
X152263390Y-75142856D02*
X152072914Y-74999999D01*
X152072914Y-74999999D02*
X152263390Y-74857142D01*
X151834819Y-74238094D02*
X152072914Y-74238094D01*
X151977676Y-74476189D02*
X152072914Y-74238094D01*
X152072914Y-74238094D02*
X151977676Y-73999999D01*
X152263390Y-74380951D02*
X152072914Y-74238094D01*
X152072914Y-74238094D02*
X152263390Y-74095237D01*
X158046666Y-93354819D02*
X157713333Y-92878628D01*
X157475238Y-93354819D02*
X157475238Y-92354819D01*
X157475238Y-92354819D02*
X157856190Y-92354819D01*
X157856190Y-92354819D02*
X157951428Y-92402438D01*
X157951428Y-92402438D02*
X157999047Y-92450057D01*
X157999047Y-92450057D02*
X158046666Y-92545295D01*
X158046666Y-92545295D02*
X158046666Y-92688152D01*
X158046666Y-92688152D02*
X157999047Y-92783390D01*
X157999047Y-92783390D02*
X157951428Y-92831009D01*
X157951428Y-92831009D02*
X157856190Y-92878628D01*
X157856190Y-92878628D02*
X157475238Y-92878628D01*
X158475238Y-92831009D02*
X158808571Y-92831009D01*
X158951428Y-93354819D02*
X158475238Y-93354819D01*
X158475238Y-93354819D02*
X158475238Y-92354819D01*
X158475238Y-92354819D02*
X158951428Y-92354819D01*
X159713333Y-92831009D02*
X159380000Y-92831009D01*
X159380000Y-93354819D02*
X159380000Y-92354819D01*
X159380000Y-92354819D02*
X159856190Y-92354819D01*
X160380000Y-92354819D02*
X160380000Y-92592914D01*
X160141905Y-92497676D02*
X160380000Y-92592914D01*
X160380000Y-92592914D02*
X160618095Y-92497676D01*
X160237143Y-92783390D02*
X160380000Y-92592914D01*
X160380000Y-92592914D02*
X160522857Y-92783390D01*
X161141905Y-92354819D02*
X161141905Y-92592914D01*
X160903810Y-92497676D02*
X161141905Y-92592914D01*
X161141905Y-92592914D02*
X161380000Y-92497676D01*
X160999048Y-92783390D02*
X161141905Y-92592914D01*
X161141905Y-92592914D02*
X161284762Y-92783390D01*
X117666666Y-78904819D02*
X117333333Y-78428628D01*
X117095238Y-78904819D02*
X117095238Y-77904819D01*
X117095238Y-77904819D02*
X117476190Y-77904819D01*
X117476190Y-77904819D02*
X117571428Y-77952438D01*
X117571428Y-77952438D02*
X117619047Y-78000057D01*
X117619047Y-78000057D02*
X117666666Y-78095295D01*
X117666666Y-78095295D02*
X117666666Y-78238152D01*
X117666666Y-78238152D02*
X117619047Y-78333390D01*
X117619047Y-78333390D02*
X117571428Y-78381009D01*
X117571428Y-78381009D02*
X117476190Y-78428628D01*
X117476190Y-78428628D02*
X117095238Y-78428628D01*
X118095238Y-78381009D02*
X118428571Y-78381009D01*
X118571428Y-78904819D02*
X118095238Y-78904819D01*
X118095238Y-78904819D02*
X118095238Y-77904819D01*
X118095238Y-77904819D02*
X118571428Y-77904819D01*
X119333333Y-78381009D02*
X119000000Y-78381009D01*
X119000000Y-78904819D02*
X119000000Y-77904819D01*
X119000000Y-77904819D02*
X119476190Y-77904819D01*
X120000000Y-77904819D02*
X120000000Y-78142914D01*
X119761905Y-78047676D02*
X120000000Y-78142914D01*
X120000000Y-78142914D02*
X120238095Y-78047676D01*
X119857143Y-78333390D02*
X120000000Y-78142914D01*
X120000000Y-78142914D02*
X120142857Y-78333390D01*
X120761905Y-77904819D02*
X120761905Y-78142914D01*
X120523810Y-78047676D02*
X120761905Y-78142914D01*
X120761905Y-78142914D02*
X121000000Y-78047676D01*
X120619048Y-78333390D02*
X120761905Y-78142914D01*
X120761905Y-78142914D02*
X120904762Y-78333390D01*
X87666666Y-123404819D02*
X87333333Y-122928628D01*
X87095238Y-123404819D02*
X87095238Y-122404819D01*
X87095238Y-122404819D02*
X87476190Y-122404819D01*
X87476190Y-122404819D02*
X87571428Y-122452438D01*
X87571428Y-122452438D02*
X87619047Y-122500057D01*
X87619047Y-122500057D02*
X87666666Y-122595295D01*
X87666666Y-122595295D02*
X87666666Y-122738152D01*
X87666666Y-122738152D02*
X87619047Y-122833390D01*
X87619047Y-122833390D02*
X87571428Y-122881009D01*
X87571428Y-122881009D02*
X87476190Y-122928628D01*
X87476190Y-122928628D02*
X87095238Y-122928628D01*
X88095238Y-122881009D02*
X88428571Y-122881009D01*
X88571428Y-123404819D02*
X88095238Y-123404819D01*
X88095238Y-123404819D02*
X88095238Y-122404819D01*
X88095238Y-122404819D02*
X88571428Y-122404819D01*
X89333333Y-122881009D02*
X89000000Y-122881009D01*
X89000000Y-123404819D02*
X89000000Y-122404819D01*
X89000000Y-122404819D02*
X89476190Y-122404819D01*
X90000000Y-122404819D02*
X90000000Y-122642914D01*
X89761905Y-122547676D02*
X90000000Y-122642914D01*
X90000000Y-122642914D02*
X90238095Y-122547676D01*
X89857143Y-122833390D02*
X90000000Y-122642914D01*
X90000000Y-122642914D02*
X90142857Y-122833390D01*
X90761905Y-122404819D02*
X90761905Y-122642914D01*
X90523810Y-122547676D02*
X90761905Y-122642914D01*
X90761905Y-122642914D02*
X91000000Y-122547676D01*
X90619048Y-122833390D02*
X90761905Y-122642914D01*
X90761905Y-122642914D02*
X90904762Y-122833390D01*
X99666666Y-123354819D02*
X99333333Y-122878628D01*
X99095238Y-123354819D02*
X99095238Y-122354819D01*
X99095238Y-122354819D02*
X99476190Y-122354819D01*
X99476190Y-122354819D02*
X99571428Y-122402438D01*
X99571428Y-122402438D02*
X99619047Y-122450057D01*
X99619047Y-122450057D02*
X99666666Y-122545295D01*
X99666666Y-122545295D02*
X99666666Y-122688152D01*
X99666666Y-122688152D02*
X99619047Y-122783390D01*
X99619047Y-122783390D02*
X99571428Y-122831009D01*
X99571428Y-122831009D02*
X99476190Y-122878628D01*
X99476190Y-122878628D02*
X99095238Y-122878628D01*
X100095238Y-122831009D02*
X100428571Y-122831009D01*
X100571428Y-123354819D02*
X100095238Y-123354819D01*
X100095238Y-123354819D02*
X100095238Y-122354819D01*
X100095238Y-122354819D02*
X100571428Y-122354819D01*
X101333333Y-122831009D02*
X101000000Y-122831009D01*
X101000000Y-123354819D02*
X101000000Y-122354819D01*
X101000000Y-122354819D02*
X101476190Y-122354819D01*
X102000000Y-122354819D02*
X102000000Y-122592914D01*
X101761905Y-122497676D02*
X102000000Y-122592914D01*
X102000000Y-122592914D02*
X102238095Y-122497676D01*
X101857143Y-122783390D02*
X102000000Y-122592914D01*
X102000000Y-122592914D02*
X102142857Y-122783390D01*
X102761905Y-122354819D02*
X102761905Y-122592914D01*
X102523810Y-122497676D02*
X102761905Y-122592914D01*
X102761905Y-122592914D02*
X103000000Y-122497676D01*
X102619048Y-122783390D02*
X102761905Y-122592914D01*
X102761905Y-122592914D02*
X102904762Y-122783390D01*
X110166666Y-81904819D02*
X109833333Y-81428628D01*
X109595238Y-81904819D02*
X109595238Y-80904819D01*
X109595238Y-80904819D02*
X109976190Y-80904819D01*
X109976190Y-80904819D02*
X110071428Y-80952438D01*
X110071428Y-80952438D02*
X110119047Y-81000057D01*
X110119047Y-81000057D02*
X110166666Y-81095295D01*
X110166666Y-81095295D02*
X110166666Y-81238152D01*
X110166666Y-81238152D02*
X110119047Y-81333390D01*
X110119047Y-81333390D02*
X110071428Y-81381009D01*
X110071428Y-81381009D02*
X109976190Y-81428628D01*
X109976190Y-81428628D02*
X109595238Y-81428628D01*
X110595238Y-81381009D02*
X110928571Y-81381009D01*
X111071428Y-81904819D02*
X110595238Y-81904819D01*
X110595238Y-81904819D02*
X110595238Y-80904819D01*
X110595238Y-80904819D02*
X111071428Y-80904819D01*
X111833333Y-81381009D02*
X111500000Y-81381009D01*
X111500000Y-81904819D02*
X111500000Y-80904819D01*
X111500000Y-80904819D02*
X111976190Y-80904819D01*
X112500000Y-80904819D02*
X112500000Y-81142914D01*
X112261905Y-81047676D02*
X112500000Y-81142914D01*
X112500000Y-81142914D02*
X112738095Y-81047676D01*
X112357143Y-81333390D02*
X112500000Y-81142914D01*
X112500000Y-81142914D02*
X112642857Y-81333390D01*
X113261905Y-80904819D02*
X113261905Y-81142914D01*
X113023810Y-81047676D02*
X113261905Y-81142914D01*
X113261905Y-81142914D02*
X113500000Y-81047676D01*
X113119048Y-81333390D02*
X113261905Y-81142914D01*
X113261905Y-81142914D02*
X113404762Y-81333390D01*
X96666666Y-64154819D02*
X96333333Y-63678628D01*
X96095238Y-64154819D02*
X96095238Y-63154819D01*
X96095238Y-63154819D02*
X96476190Y-63154819D01*
X96476190Y-63154819D02*
X96571428Y-63202438D01*
X96571428Y-63202438D02*
X96619047Y-63250057D01*
X96619047Y-63250057D02*
X96666666Y-63345295D01*
X96666666Y-63345295D02*
X96666666Y-63488152D01*
X96666666Y-63488152D02*
X96619047Y-63583390D01*
X96619047Y-63583390D02*
X96571428Y-63631009D01*
X96571428Y-63631009D02*
X96476190Y-63678628D01*
X96476190Y-63678628D02*
X96095238Y-63678628D01*
X97095238Y-63631009D02*
X97428571Y-63631009D01*
X97571428Y-64154819D02*
X97095238Y-64154819D01*
X97095238Y-64154819D02*
X97095238Y-63154819D01*
X97095238Y-63154819D02*
X97571428Y-63154819D01*
X98333333Y-63631009D02*
X98000000Y-63631009D01*
X98000000Y-64154819D02*
X98000000Y-63154819D01*
X98000000Y-63154819D02*
X98476190Y-63154819D01*
X99000000Y-63154819D02*
X99000000Y-63392914D01*
X98761905Y-63297676D02*
X99000000Y-63392914D01*
X99000000Y-63392914D02*
X99238095Y-63297676D01*
X98857143Y-63583390D02*
X99000000Y-63392914D01*
X99000000Y-63392914D02*
X99142857Y-63583390D01*
X99761905Y-63154819D02*
X99761905Y-63392914D01*
X99523810Y-63297676D02*
X99761905Y-63392914D01*
X99761905Y-63392914D02*
X100000000Y-63297676D01*
X99619048Y-63583390D02*
X99761905Y-63392914D01*
X99761905Y-63392914D02*
X99904762Y-63583390D01*
X95666666Y-86404819D02*
X95333333Y-85928628D01*
X95095238Y-86404819D02*
X95095238Y-85404819D01*
X95095238Y-85404819D02*
X95476190Y-85404819D01*
X95476190Y-85404819D02*
X95571428Y-85452438D01*
X95571428Y-85452438D02*
X95619047Y-85500057D01*
X95619047Y-85500057D02*
X95666666Y-85595295D01*
X95666666Y-85595295D02*
X95666666Y-85738152D01*
X95666666Y-85738152D02*
X95619047Y-85833390D01*
X95619047Y-85833390D02*
X95571428Y-85881009D01*
X95571428Y-85881009D02*
X95476190Y-85928628D01*
X95476190Y-85928628D02*
X95095238Y-85928628D01*
X96095238Y-85881009D02*
X96428571Y-85881009D01*
X96571428Y-86404819D02*
X96095238Y-86404819D01*
X96095238Y-86404819D02*
X96095238Y-85404819D01*
X96095238Y-85404819D02*
X96571428Y-85404819D01*
X97333333Y-85881009D02*
X97000000Y-85881009D01*
X97000000Y-86404819D02*
X97000000Y-85404819D01*
X97000000Y-85404819D02*
X97476190Y-85404819D01*
X98000000Y-85404819D02*
X98000000Y-85642914D01*
X97761905Y-85547676D02*
X98000000Y-85642914D01*
X98000000Y-85642914D02*
X98238095Y-85547676D01*
X97857143Y-85833390D02*
X98000000Y-85642914D01*
X98000000Y-85642914D02*
X98142857Y-85833390D01*
X98761905Y-85404819D02*
X98761905Y-85642914D01*
X98523810Y-85547676D02*
X98761905Y-85642914D01*
X98761905Y-85642914D02*
X99000000Y-85547676D01*
X98619048Y-85833390D02*
X98761905Y-85642914D01*
X98761905Y-85642914D02*
X98904762Y-85833390D01*
X89666666Y-85054819D02*
X89333333Y-84578628D01*
X89095238Y-85054819D02*
X89095238Y-84054819D01*
X89095238Y-84054819D02*
X89476190Y-84054819D01*
X89476190Y-84054819D02*
X89571428Y-84102438D01*
X89571428Y-84102438D02*
X89619047Y-84150057D01*
X89619047Y-84150057D02*
X89666666Y-84245295D01*
X89666666Y-84245295D02*
X89666666Y-84388152D01*
X89666666Y-84388152D02*
X89619047Y-84483390D01*
X89619047Y-84483390D02*
X89571428Y-84531009D01*
X89571428Y-84531009D02*
X89476190Y-84578628D01*
X89476190Y-84578628D02*
X89095238Y-84578628D01*
X90095238Y-84531009D02*
X90428571Y-84531009D01*
X90571428Y-85054819D02*
X90095238Y-85054819D01*
X90095238Y-85054819D02*
X90095238Y-84054819D01*
X90095238Y-84054819D02*
X90571428Y-84054819D01*
X91333333Y-84531009D02*
X91000000Y-84531009D01*
X91000000Y-85054819D02*
X91000000Y-84054819D01*
X91000000Y-84054819D02*
X91476190Y-84054819D01*
X92000000Y-84054819D02*
X92000000Y-84292914D01*
X91761905Y-84197676D02*
X92000000Y-84292914D01*
X92000000Y-84292914D02*
X92238095Y-84197676D01*
X91857143Y-84483390D02*
X92000000Y-84292914D01*
X92000000Y-84292914D02*
X92142857Y-84483390D01*
X92761905Y-84054819D02*
X92761905Y-84292914D01*
X92523810Y-84197676D02*
X92761905Y-84292914D01*
X92761905Y-84292914D02*
X93000000Y-84197676D01*
X92619048Y-84483390D02*
X92761905Y-84292914D01*
X92761905Y-84292914D02*
X92904762Y-84483390D01*
X84166666Y-81404819D02*
X83833333Y-80928628D01*
X83595238Y-81404819D02*
X83595238Y-80404819D01*
X83595238Y-80404819D02*
X83976190Y-80404819D01*
X83976190Y-80404819D02*
X84071428Y-80452438D01*
X84071428Y-80452438D02*
X84119047Y-80500057D01*
X84119047Y-80500057D02*
X84166666Y-80595295D01*
X84166666Y-80595295D02*
X84166666Y-80738152D01*
X84166666Y-80738152D02*
X84119047Y-80833390D01*
X84119047Y-80833390D02*
X84071428Y-80881009D01*
X84071428Y-80881009D02*
X83976190Y-80928628D01*
X83976190Y-80928628D02*
X83595238Y-80928628D01*
X84595238Y-80881009D02*
X84928571Y-80881009D01*
X85071428Y-81404819D02*
X84595238Y-81404819D01*
X84595238Y-81404819D02*
X84595238Y-80404819D01*
X84595238Y-80404819D02*
X85071428Y-80404819D01*
X85833333Y-80881009D02*
X85500000Y-80881009D01*
X85500000Y-81404819D02*
X85500000Y-80404819D01*
X85500000Y-80404819D02*
X85976190Y-80404819D01*
X86500000Y-80404819D02*
X86500000Y-80642914D01*
X86261905Y-80547676D02*
X86500000Y-80642914D01*
X86500000Y-80642914D02*
X86738095Y-80547676D01*
X86357143Y-80833390D02*
X86500000Y-80642914D01*
X86500000Y-80642914D02*
X86642857Y-80833390D01*
X87261905Y-80404819D02*
X87261905Y-80642914D01*
X87023810Y-80547676D02*
X87261905Y-80642914D01*
X87261905Y-80642914D02*
X87500000Y-80547676D01*
X87119048Y-80833390D02*
X87261905Y-80642914D01*
X87261905Y-80642914D02*
X87404762Y-80833390D01*
X117166666Y-87904819D02*
X116833333Y-87428628D01*
X116595238Y-87904819D02*
X116595238Y-86904819D01*
X116595238Y-86904819D02*
X116976190Y-86904819D01*
X116976190Y-86904819D02*
X117071428Y-86952438D01*
X117071428Y-86952438D02*
X117119047Y-87000057D01*
X117119047Y-87000057D02*
X117166666Y-87095295D01*
X117166666Y-87095295D02*
X117166666Y-87238152D01*
X117166666Y-87238152D02*
X117119047Y-87333390D01*
X117119047Y-87333390D02*
X117071428Y-87381009D01*
X117071428Y-87381009D02*
X116976190Y-87428628D01*
X116976190Y-87428628D02*
X116595238Y-87428628D01*
X117595238Y-87381009D02*
X117928571Y-87381009D01*
X118071428Y-87904819D02*
X117595238Y-87904819D01*
X117595238Y-87904819D02*
X117595238Y-86904819D01*
X117595238Y-86904819D02*
X118071428Y-86904819D01*
X118833333Y-87381009D02*
X118500000Y-87381009D01*
X118500000Y-87904819D02*
X118500000Y-86904819D01*
X118500000Y-86904819D02*
X118976190Y-86904819D01*
X119500000Y-86904819D02*
X119500000Y-87142914D01*
X119261905Y-87047676D02*
X119500000Y-87142914D01*
X119500000Y-87142914D02*
X119738095Y-87047676D01*
X119357143Y-87333390D02*
X119500000Y-87142914D01*
X119500000Y-87142914D02*
X119642857Y-87333390D01*
X120261905Y-86904819D02*
X120261905Y-87142914D01*
X120023810Y-87047676D02*
X120261905Y-87142914D01*
X120261905Y-87142914D02*
X120500000Y-87047676D01*
X120119048Y-87333390D02*
X120261905Y-87142914D01*
X120261905Y-87142914D02*
X120404762Y-87333390D01*
X110166666Y-87904819D02*
X109833333Y-87428628D01*
X109595238Y-87904819D02*
X109595238Y-86904819D01*
X109595238Y-86904819D02*
X109976190Y-86904819D01*
X109976190Y-86904819D02*
X110071428Y-86952438D01*
X110071428Y-86952438D02*
X110119047Y-87000057D01*
X110119047Y-87000057D02*
X110166666Y-87095295D01*
X110166666Y-87095295D02*
X110166666Y-87238152D01*
X110166666Y-87238152D02*
X110119047Y-87333390D01*
X110119047Y-87333390D02*
X110071428Y-87381009D01*
X110071428Y-87381009D02*
X109976190Y-87428628D01*
X109976190Y-87428628D02*
X109595238Y-87428628D01*
X110595238Y-87381009D02*
X110928571Y-87381009D01*
X111071428Y-87904819D02*
X110595238Y-87904819D01*
X110595238Y-87904819D02*
X110595238Y-86904819D01*
X110595238Y-86904819D02*
X111071428Y-86904819D01*
X111833333Y-87381009D02*
X111500000Y-87381009D01*
X111500000Y-87904819D02*
X111500000Y-86904819D01*
X111500000Y-86904819D02*
X111976190Y-86904819D01*
X112500000Y-86904819D02*
X112500000Y-87142914D01*
X112261905Y-87047676D02*
X112500000Y-87142914D01*
X112500000Y-87142914D02*
X112738095Y-87047676D01*
X112357143Y-87333390D02*
X112500000Y-87142914D01*
X112500000Y-87142914D02*
X112642857Y-87333390D01*
X113261905Y-86904819D02*
X113261905Y-87142914D01*
X113023810Y-87047676D02*
X113261905Y-87142914D01*
X113261905Y-87142914D02*
X113500000Y-87047676D01*
X113119048Y-87333390D02*
X113261905Y-87142914D01*
X113261905Y-87142914D02*
X113404762Y-87333390D01*
X120954819Y-90563333D02*
X120478628Y-90896666D01*
X120954819Y-91134761D02*
X119954819Y-91134761D01*
X119954819Y-91134761D02*
X119954819Y-90753809D01*
X119954819Y-90753809D02*
X120002438Y-90658571D01*
X120002438Y-90658571D02*
X120050057Y-90610952D01*
X120050057Y-90610952D02*
X120145295Y-90563333D01*
X120145295Y-90563333D02*
X120288152Y-90563333D01*
X120288152Y-90563333D02*
X120383390Y-90610952D01*
X120383390Y-90610952D02*
X120431009Y-90658571D01*
X120431009Y-90658571D02*
X120478628Y-90753809D01*
X120478628Y-90753809D02*
X120478628Y-91134761D01*
X120431009Y-90134761D02*
X120431009Y-89801428D01*
X120954819Y-89658571D02*
X120954819Y-90134761D01*
X120954819Y-90134761D02*
X119954819Y-90134761D01*
X119954819Y-90134761D02*
X119954819Y-89658571D01*
X120431009Y-88896666D02*
X120431009Y-89229999D01*
X120954819Y-89229999D02*
X119954819Y-89229999D01*
X119954819Y-89229999D02*
X119954819Y-88753809D01*
X119954819Y-88229999D02*
X120192914Y-88229999D01*
X120097676Y-88468094D02*
X120192914Y-88229999D01*
X120192914Y-88229999D02*
X120097676Y-87991904D01*
X120383390Y-88372856D02*
X120192914Y-88229999D01*
X120192914Y-88229999D02*
X120383390Y-88087142D01*
X119954819Y-87468094D02*
X120192914Y-87468094D01*
X120097676Y-87706189D02*
X120192914Y-87468094D01*
X120192914Y-87468094D02*
X120097676Y-87229999D01*
X120383390Y-87610951D02*
X120192914Y-87468094D01*
X120192914Y-87468094D02*
X120383390Y-87325237D01*
X84704819Y-100853333D02*
X84228628Y-101186666D01*
X84704819Y-101424761D02*
X83704819Y-101424761D01*
X83704819Y-101424761D02*
X83704819Y-101043809D01*
X83704819Y-101043809D02*
X83752438Y-100948571D01*
X83752438Y-100948571D02*
X83800057Y-100900952D01*
X83800057Y-100900952D02*
X83895295Y-100853333D01*
X83895295Y-100853333D02*
X84038152Y-100853333D01*
X84038152Y-100853333D02*
X84133390Y-100900952D01*
X84133390Y-100900952D02*
X84181009Y-100948571D01*
X84181009Y-100948571D02*
X84228628Y-101043809D01*
X84228628Y-101043809D02*
X84228628Y-101424761D01*
X84181009Y-100424761D02*
X84181009Y-100091428D01*
X84704819Y-99948571D02*
X84704819Y-100424761D01*
X84704819Y-100424761D02*
X83704819Y-100424761D01*
X83704819Y-100424761D02*
X83704819Y-99948571D01*
X84181009Y-99186666D02*
X84181009Y-99519999D01*
X84704819Y-99519999D02*
X83704819Y-99519999D01*
X83704819Y-99519999D02*
X83704819Y-99043809D01*
X83704819Y-98519999D02*
X83942914Y-98519999D01*
X83847676Y-98758094D02*
X83942914Y-98519999D01*
X83942914Y-98519999D02*
X83847676Y-98281904D01*
X84133390Y-98662856D02*
X83942914Y-98519999D01*
X83942914Y-98519999D02*
X84133390Y-98377142D01*
X83704819Y-97758094D02*
X83942914Y-97758094D01*
X83847676Y-97996189D02*
X83942914Y-97758094D01*
X83942914Y-97758094D02*
X83847676Y-97519999D01*
X84133390Y-97900951D02*
X83942914Y-97758094D01*
X83942914Y-97758094D02*
X84133390Y-97615237D01*
X129666666Y-37054819D02*
X129333333Y-36578628D01*
X129095238Y-37054819D02*
X129095238Y-36054819D01*
X129095238Y-36054819D02*
X129476190Y-36054819D01*
X129476190Y-36054819D02*
X129571428Y-36102438D01*
X129571428Y-36102438D02*
X129619047Y-36150057D01*
X129619047Y-36150057D02*
X129666666Y-36245295D01*
X129666666Y-36245295D02*
X129666666Y-36388152D01*
X129666666Y-36388152D02*
X129619047Y-36483390D01*
X129619047Y-36483390D02*
X129571428Y-36531009D01*
X129571428Y-36531009D02*
X129476190Y-36578628D01*
X129476190Y-36578628D02*
X129095238Y-36578628D01*
X130095238Y-36531009D02*
X130428571Y-36531009D01*
X130571428Y-37054819D02*
X130095238Y-37054819D01*
X130095238Y-37054819D02*
X130095238Y-36054819D01*
X130095238Y-36054819D02*
X130571428Y-36054819D01*
X131333333Y-36531009D02*
X131000000Y-36531009D01*
X131000000Y-37054819D02*
X131000000Y-36054819D01*
X131000000Y-36054819D02*
X131476190Y-36054819D01*
X132000000Y-36054819D02*
X132000000Y-36292914D01*
X131761905Y-36197676D02*
X132000000Y-36292914D01*
X132000000Y-36292914D02*
X132238095Y-36197676D01*
X131857143Y-36483390D02*
X132000000Y-36292914D01*
X132000000Y-36292914D02*
X132142857Y-36483390D01*
X132761905Y-36054819D02*
X132761905Y-36292914D01*
X132523810Y-36197676D02*
X132761905Y-36292914D01*
X132761905Y-36292914D02*
X133000000Y-36197676D01*
X132619048Y-36483390D02*
X132761905Y-36292914D01*
X132761905Y-36292914D02*
X132904762Y-36483390D01*
X88907142Y-48787200D02*
X91192857Y-48787200D01*
X90049999Y-49930057D02*
X90049999Y-47644342D01*
D11*
%TO.C,REF\u002A\u002A*%
X153280000Y-78160000D02*
X155280000Y-78160000D01*
X153280000Y-78160000D02*
X153280000Y-76550000D01*
X165820000Y-77880000D02*
X153570000Y-77880000D01*
X153560000Y-77870000D02*
X153560000Y-72130000D01*
X153560000Y-72120000D02*
X165820000Y-72120000D01*
X165820000Y-72120000D02*
X165820000Y-77880000D01*
X155320000Y-87090000D02*
X155320000Y-91810000D01*
X155320000Y-89200000D02*
X155930000Y-89200000D01*
X155320000Y-90500000D02*
X155930000Y-90500000D01*
X155320000Y-91810000D02*
X163440000Y-91810000D01*
X155930000Y-87700000D02*
X155930000Y-91200000D01*
X155930000Y-91200000D02*
X157880000Y-91200000D01*
X157880000Y-91200000D02*
X157880000Y-91810000D01*
X158280000Y-88200000D02*
X158280000Y-87700000D01*
X158380000Y-87700000D02*
X158380000Y-88200000D01*
X158480000Y-87700000D02*
X158480000Y-88200000D01*
X158480000Y-88200000D02*
X158280000Y-88200000D01*
X160280000Y-88200000D02*
X160280000Y-87700000D01*
X160380000Y-87700000D02*
X160380000Y-88200000D01*
X160480000Y-87700000D02*
X160480000Y-88200000D01*
X160480000Y-88200000D02*
X160280000Y-88200000D01*
X160880000Y-91200000D02*
X162830000Y-91200000D01*
X160880000Y-91810000D02*
X160880000Y-91200000D01*
X161680000Y-91810000D02*
X161680000Y-92010000D01*
X161680000Y-91910000D02*
X161980000Y-91910000D01*
X161680000Y-92010000D02*
X161980000Y-92010000D01*
X161980000Y-92010000D02*
X161980000Y-91810000D01*
X162490000Y-92110000D02*
X163740000Y-92110000D01*
X162830000Y-87700000D02*
X155930000Y-87700000D01*
X162830000Y-91200000D02*
X162830000Y-87700000D01*
X163440000Y-87090000D02*
X155320000Y-87090000D01*
X163440000Y-89200000D02*
X162830000Y-89200000D01*
X163440000Y-90500000D02*
X162830000Y-90500000D01*
X163440000Y-91810000D02*
X163440000Y-87090000D01*
X163740000Y-92110000D02*
X163740000Y-90860000D01*
X85940000Y-117140000D02*
X85940000Y-121860000D01*
X85940000Y-119250000D02*
X86550000Y-119250000D01*
X85940000Y-120550000D02*
X86550000Y-120550000D01*
X85940000Y-121860000D02*
X92060000Y-121860000D01*
X86550000Y-117750000D02*
X86550000Y-121250000D01*
X86550000Y-121250000D02*
X88500000Y-121250000D01*
X88500000Y-121250000D02*
X88500000Y-121860000D01*
X88900000Y-118250000D02*
X88900000Y-117750000D01*
X89000000Y-117750000D02*
X89000000Y-118250000D01*
X89100000Y-117750000D02*
X89100000Y-118250000D01*
X89100000Y-118250000D02*
X88900000Y-118250000D01*
X89500000Y-121250000D02*
X91450000Y-121250000D01*
X89500000Y-121860000D02*
X89500000Y-121250000D01*
X90300000Y-121860000D02*
X90300000Y-122060000D01*
X90300000Y-121960000D02*
X90600000Y-121960000D01*
X90300000Y-122060000D02*
X90600000Y-122060000D01*
X90600000Y-122060000D02*
X90600000Y-121860000D01*
X91110000Y-122160000D02*
X92360000Y-122160000D01*
X91450000Y-117750000D02*
X86550000Y-117750000D01*
X91450000Y-121250000D02*
X91450000Y-117750000D01*
X92060000Y-117140000D02*
X85940000Y-117140000D01*
X92060000Y-119250000D02*
X91450000Y-119250000D01*
X92060000Y-120550000D02*
X91450000Y-120550000D01*
X92060000Y-121860000D02*
X92060000Y-117140000D01*
X92360000Y-122160000D02*
X92360000Y-120910000D01*
X97940000Y-117090000D02*
X97940000Y-121810000D01*
X97940000Y-119200000D02*
X98550000Y-119200000D01*
X97940000Y-120500000D02*
X98550000Y-120500000D01*
X97940000Y-121810000D02*
X104060000Y-121810000D01*
X98550000Y-117700000D02*
X98550000Y-121200000D01*
X98550000Y-121200000D02*
X100500000Y-121200000D01*
X100500000Y-121200000D02*
X100500000Y-121810000D01*
X100900000Y-118200000D02*
X100900000Y-117700000D01*
X101000000Y-117700000D02*
X101000000Y-118200000D01*
X101100000Y-117700000D02*
X101100000Y-118200000D01*
X101100000Y-118200000D02*
X100900000Y-118200000D01*
X101500000Y-121200000D02*
X103450000Y-121200000D01*
X101500000Y-121810000D02*
X101500000Y-121200000D01*
X102300000Y-121810000D02*
X102300000Y-122010000D01*
X102300000Y-121910000D02*
X102600000Y-121910000D01*
X102300000Y-122010000D02*
X102600000Y-122010000D01*
X102600000Y-122010000D02*
X102600000Y-121810000D01*
X103110000Y-122110000D02*
X104360000Y-122110000D01*
X103450000Y-117700000D02*
X98550000Y-117700000D01*
X103450000Y-121200000D02*
X103450000Y-117700000D01*
X104060000Y-117090000D02*
X97940000Y-117090000D01*
X104060000Y-119200000D02*
X103450000Y-119200000D01*
X104060000Y-120500000D02*
X103450000Y-120500000D01*
X104060000Y-121810000D02*
X104060000Y-117090000D01*
X104360000Y-122110000D02*
X104360000Y-120860000D01*
X91800000Y-66400000D02*
X93400000Y-64800000D01*
X91800000Y-67550000D02*
X91800000Y-66400000D01*
X91800000Y-69450000D02*
X91800000Y-72550000D01*
X91800000Y-74450000D02*
X91800000Y-75600000D01*
X91800000Y-75600000D02*
X93400000Y-77200000D01*
X93400000Y-64800000D02*
X102600000Y-64800000D01*
X93400000Y-77200000D02*
X102600000Y-77200000D01*
X102600000Y-64800000D02*
X104200000Y-66400000D01*
X102600000Y-77200000D02*
X104200000Y-75600000D01*
X104200000Y-67550000D02*
X104200000Y-66400000D01*
X104200000Y-69450000D02*
X104200000Y-72550000D01*
X104200000Y-74450000D02*
X104200000Y-75600000D01*
X91000000Y-85440000D02*
X90200000Y-85440000D01*
X91000000Y-85440000D02*
X91800000Y-85440000D01*
X91000000Y-88560000D02*
X90200000Y-88560000D01*
X91000000Y-88560000D02*
X91800000Y-88560000D01*
X89700000Y-85490000D02*
X89460000Y-85160000D01*
X89940000Y-85160000D01*
X89700000Y-85490000D01*
G36*
X89700000Y-85490000D02*
G01*
X89460000Y-85160000D01*
X89940000Y-85160000D01*
X89700000Y-85490000D01*
G37*
D12*
X84690000Y-82000000D02*
G75*
G02*
X84590000Y-82000000I-50000J0D01*
G01*
X84590000Y-82000000D02*
G75*
G02*
X84690000Y-82000000I50000J0D01*
G01*
X110690000Y-88500000D02*
G75*
G02*
X110590000Y-88500000I-50000J0D01*
G01*
X110590000Y-88500000D02*
G75*
G02*
X110690000Y-88500000I50000J0D01*
G01*
D11*
X121890000Y-70890000D02*
X121890000Y-76700000D01*
X121890000Y-70890000D02*
X140110000Y-70890000D01*
X121890000Y-90810000D02*
X121890000Y-91110000D01*
X121890000Y-91110000D02*
X140110000Y-91110000D01*
X140110000Y-70890000D02*
X140110000Y-77390000D01*
X140110000Y-90810000D02*
X140110000Y-91110000D01*
X121900000Y-77400000D02*
X121400000Y-77400000D01*
X121900000Y-76900000D01*
X121900000Y-77400000D01*
G36*
X121900000Y-77400000D02*
G01*
X121400000Y-77400000D01*
X121900000Y-76900000D01*
X121900000Y-77400000D01*
G37*
X83610000Y-84960000D02*
X83610000Y-86460000D01*
X82110000Y-84960000D02*
X83610000Y-84960000D01*
X78090000Y-85410000D02*
X80700000Y-85410000D01*
X78090000Y-85410000D02*
X78090000Y-113630000D01*
X83310000Y-100570000D02*
X83310000Y-85410000D01*
X83310000Y-102090000D02*
X83310000Y-105620000D01*
X83310000Y-107160000D02*
X83310000Y-110640000D01*
X83310000Y-112220000D02*
X83310000Y-113630000D01*
X78090000Y-113630000D02*
X83310000Y-113630000D01*
X91540000Y-37440000D02*
X170460000Y-37440000D01*
X91540000Y-59560000D02*
X91540000Y-37440000D01*
X170460000Y-37440000D02*
X170460000Y-59560000D01*
X170460000Y-59560000D02*
X91540000Y-59560000D01*
%TD*%
D13*
%TO.P,REF\u002A\u002A,1*%
%TO.N,N/C*%
X155880000Y-75000000D03*
D14*
%TO.P,REF\u002A\u002A,2*%
X158420000Y-75000000D03*
%TO.P,REF\u002A\u002A,3*%
X160960000Y-75000000D03*
%TO.P,REF\u002A\u002A,4*%
X163500000Y-75000000D03*
%TD*%
D15*
%TO.P,REF\u002A\u002A,3*%
%TO.N,N/C*%
X157380000Y-90000000D03*
%TO.P,REF\u002A\u002A,2*%
X159380000Y-90000000D03*
D16*
%TO.P,REF\u002A\u002A,1*%
X161380000Y-90000000D03*
%TD*%
D15*
%TO.P,REF\u002A\u002A,2*%
%TO.N,N/C*%
X88000000Y-120050000D03*
D16*
%TO.P,REF\u002A\u002A,1*%
X90000000Y-120050000D03*
%TD*%
D15*
%TO.P,REF\u002A\u002A,2*%
%TO.N,N/C*%
X100000000Y-120000000D03*
D16*
%TO.P,REF\u002A\u002A,1*%
X102000000Y-120000000D03*
%TD*%
D17*
%TO.P,REF\u002A\u002A,19*%
%TO.N,N/C*%
X130860000Y-83750000D03*
X130860000Y-84850000D03*
X131410000Y-83200000D03*
X131410000Y-84300000D03*
X131410000Y-85400000D03*
X131960000Y-83750000D03*
X131960000Y-84850000D03*
X132510000Y-83200000D03*
X132510000Y-84300000D03*
X132510000Y-85400000D03*
X133060000Y-83750000D03*
X133060000Y-84850000D03*
%TD*%
D18*
%TO.P,REF\u002A\u002A,11*%
%TO.N,N/C*%
X82000000Y-106380000D03*
%TO.P,REF\u002A\u002A,12*%
X82000000Y-101340000D03*
%TO.P,REF\u002A\u002A,14*%
X82000000Y-111420000D03*
D19*
%TO.P,REF\u002A\u002A,A1*%
X82000000Y-86220000D03*
D20*
%TO.P,REF\u002A\u002A,A2*%
X82000000Y-90000000D03*
%TD*%
D21*
%TO.P,REF\u002A\u002A,1*%
%TO.N,N/C*%
X94550000Y-48500000D03*
D22*
%TO.P,REF\u002A\u002A,2*%
X167450000Y-48500000D03*
%TD*%
M02*
