%TF.GenerationSoftware,KiCad,Pcbnew,9.0.4*%
%TF.CreationDate,2025-10-18T23:37:39+08:00*%
%TF.ProjectId,schematics,73636865-6d61-4746-9963-732e6b696361,pre-release*%
%TF.SameCoordinates,Original*%
%TF.FileFunction,Soldermask,Bot*%
%TF.FilePolarity,Negative*%
%FSLAX46Y46*%
G04 Gerber Fmt 4.6, Leading zero omitted, Abs format (unit mm)*
G04 Created by KiCad (PCBNEW 9.0.4) date 2025-10-18 23:37:39*
%MOMM*%
%LPD*%
G01*
G04 APERTURE LIST*
G04 Aperture macros list*
%AMRoundRect*
0 Rectangle with rounded corners*
0 $1 Rounding radius*
0 $2 $3 $4 $5 $6 $7 $8 $9 X,Y pos of 4 corners*
0 Add a 4 corners polygon primitive as box body*
4,1,4,$2,$3,$4,$5,$6,$7,$8,$9,$2,$3,0*
0 Add four circle primitives for the rounded corners*
1,1,$1+$1,$2,$3*
1,1,$1+$1,$4,$5*
1,1,$1+$1,$6,$7*
1,1,$1+$1,$8,$9*
0 Add four rect primitives between the rounded corners*
20,1,$1+$1,$2,$3,$4,$5,0*
20,1,$1+$1,$4,$5,$6,$7,0*
20,1,$1+$1,$6,$7,$8,$9,0*
20,1,$1+$1,$8,$9,$2,$3,0*%
G04 Aperture macros list end*
%ADD10R,1.500000X1.500000*%
%ADD11C,1.500000*%
%ADD12O,1.200000X1.750000*%
%ADD13RoundRect,0.250000X0.350000X0.625000X-0.350000X0.625000X-0.350000X-0.625000X0.350000X-0.625000X0*%
%ADD14C,2.000000*%
%ADD15C,2.400000*%
%ADD16R,2.000000X2.000000*%
%ADD17C,3.200000*%
%ADD18RoundRect,0.249999X-1.250001X-1.250001X1.250001X-1.250001X1.250001X1.250001X-1.250001X1.250001X0*%
%ADD19C,3.000000*%
%TA.AperFunction,ComponentPad*%
%ADD20R,1.500000X1.500000*%
%TD*%
%TA.AperFunction,ComponentPad*%
%ADD21C,1.500000*%
%TD*%
%TA.AperFunction,ComponentPad*%
%ADD22O,1.200000X1.750000*%
%TD*%
%TA.AperFunction,ComponentPad*%
%ADD23RoundRect,0.250000X0.350000X0.625000X-0.350000X0.625000X-0.350000X-0.625000X0.350000X-0.625000X0*%
%TD*%
%TA.AperFunction,HeatsinkPad*%
%ADD24C,0.600000*%
%TD*%
%TA.AperFunction,ComponentPad*%
%ADD25C,2.400000*%
%TD*%
%TA.AperFunction,ComponentPad*%
%ADD26R,2.000000X2.000000*%
%TD*%
%TA.AperFunction,ComponentPad*%
%ADD27C,2.000000*%
%TD*%
%TA.AperFunction,ComponentPad*%
%ADD28RoundRect,0.249999X-1.250001X-1.250001X1.250001X-1.250001X1.250001X1.250001X-1.250001X1.250001X0*%
%TD*%
%TA.AperFunction,ComponentPad*%
%ADD29C,3.000000*%
%TD*%
G04 APERTURE END LIST*
D10*
%TO.C,REF\u002A\u002A*%
X155880000Y-75000000D03*
D11*
X158420000Y-75000000D03*
X160960000Y-75000000D03*
X163500000Y-75000000D03*
%TD*%
D12*
%TO.C,REF\u002A\u002A*%
X157380000Y-90000000D03*
X159380000Y-90000000D03*
D13*
X161380000Y-90000000D03*
%TD*%
D12*
%TO.C,REF\u002A\u002A*%
X88000000Y-120050000D03*
D13*
X90000000Y-120050000D03*
%TD*%
D12*
%TO.C,REF\u002A\u002A*%
X100000000Y-120000000D03*
D13*
X102000000Y-120000000D03*
%TD*%
D14*
%TO.C,REF\u002A\u002A*%
X98000000Y-66500000D03*
X98000000Y-75500000D03*
%TD*%
D15*
%TO.C,REF\u002A\u002A*%
X82000000Y-106380000D03*
X82000000Y-101340000D03*
X82000000Y-111420000D03*
D16*
X82000000Y-86220000D03*
D14*
X82000000Y-90000000D03*
%TD*%
D17*
%TO.C,REF\u002A\u002A*%
X102995000Y-48500000D03*
X158605000Y-48500000D03*
D18*
X94550000Y-48500000D03*
D19*
X167450000Y-48500000D03*
%TD*%
D20*
%TO.P,REF\u002A\u002A,1*%
%TO.N,N/C*%
X155880000Y-75000000D03*
D21*
%TO.P,REF\u002A\u002A,2*%
X158420000Y-75000000D03*
%TO.P,REF\u002A\u002A,3*%
X160960000Y-75000000D03*
%TO.P,REF\u002A\u002A,4*%
X163500000Y-75000000D03*
%TD*%
D22*
%TO.P,REF\u002A\u002A,3*%
%TO.N,N/C*%
X157380000Y-90000000D03*
%TO.P,REF\u002A\u002A,2*%
X159380000Y-90000000D03*
D23*
%TO.P,REF\u002A\u002A,1*%
X161380000Y-90000000D03*
%TD*%
D22*
%TO.P,REF\u002A\u002A,2*%
%TO.N,N/C*%
X88000000Y-120050000D03*
D23*
%TO.P,REF\u002A\u002A,1*%
X90000000Y-120050000D03*
%TD*%
D22*
%TO.P,REF\u002A\u002A,2*%
%TO.N,N/C*%
X100000000Y-120000000D03*
D23*
%TO.P,REF\u002A\u002A,1*%
X102000000Y-120000000D03*
%TD*%
D24*
%TO.P,REF\u002A\u002A,19*%
%TO.N,N/C*%
X130860000Y-83750000D03*
X130860000Y-84850000D03*
X131410000Y-83200000D03*
X131410000Y-84300000D03*
X131410000Y-85400000D03*
X131960000Y-83750000D03*
X131960000Y-84850000D03*
X132510000Y-83200000D03*
X132510000Y-84300000D03*
X132510000Y-85400000D03*
X133060000Y-83750000D03*
X133060000Y-84850000D03*
%TD*%
D25*
%TO.P,REF\u002A\u002A,11*%
%TO.N,N/C*%
X82000000Y-106380000D03*
%TO.P,REF\u002A\u002A,12*%
X82000000Y-101340000D03*
%TO.P,REF\u002A\u002A,14*%
X82000000Y-111420000D03*
D26*
%TO.P,REF\u002A\u002A,A1*%
X82000000Y-86220000D03*
D27*
%TO.P,REF\u002A\u002A,A2*%
X82000000Y-90000000D03*
%TD*%
D28*
%TO.P,REF\u002A\u002A,1*%
%TO.N,N/C*%
X94550000Y-48500000D03*
D29*
%TO.P,REF\u002A\u002A,2*%
X167450000Y-48500000D03*
%TD*%
M02*
